<svg width="181" height="38" viewBox="0 0 181 38" fill="none" xmlns="http://www.w3.org/2000/svg">
<g filter="url(#filter0_d_5_315)">
<mask id="path-1-inside-1_5_315" fill="white">
<path d="M21.7515 26.24C20.9515 26.24 20.2555 26.136 19.6635 25.928C19.0715 25.704 18.5275 25.376 18.0315 24.944L17.8635 26H15.0555V9.824H18.2955V15.248C18.7595 14.96 19.2795 14.744 19.8555 14.6C20.4315 14.456 21.0315 14.384 21.6555 14.384C23.2875 14.384 24.5755 14.848 25.5195 15.776C26.4795 16.688 26.9595 18.168 26.9595 20.216C26.9595 22.264 26.4875 23.784 25.5435 24.776C24.6155 25.752 23.3515 26.24 21.7515 26.24ZM20.8395 23.864C21.8795 23.864 22.6075 23.56 23.0235 22.952C23.4555 22.344 23.6715 21.432 23.6715 20.216C23.6715 18.952 23.4395 18.064 22.9755 17.552C22.5275 17.024 21.8075 16.76 20.8155 16.76C20.3195 16.76 19.8475 16.832 19.3995 16.976C18.9675 17.12 18.5995 17.328 18.2955 17.6V22.832C18.6155 23.168 18.9915 23.424 19.4235 23.6C19.8715 23.776 20.3435 23.864 20.8395 23.864ZM32.7878 26.24C32.0678 26.24 31.3958 26.112 30.7718 25.856C30.1638 25.584 29.6678 25.192 29.2838 24.68C28.9158 24.152 28.7318 23.496 28.7318 22.712C28.7318 21.592 29.1238 20.696 29.9078 20.024C30.7078 19.352 31.8838 19.016 33.4358 19.016H36.7958V18.704C36.7958 18 36.5958 17.504 36.1958 17.216C35.8118 16.928 35.0278 16.784 33.8438 16.784C32.5478 16.784 31.2998 16.984 30.0998 17.384V15.104C30.6278 14.896 31.2678 14.728 32.0198 14.6C32.7878 14.456 33.6198 14.384 34.5158 14.384C36.2278 14.384 37.5478 14.736 38.4758 15.44C39.4198 16.128 39.8918 17.24 39.8918 18.776V26H37.0838L36.9158 24.968C36.4678 25.368 35.9158 25.68 35.2598 25.904C34.6038 26.128 33.7798 26.24 32.7878 26.24ZM33.6758 24.104C34.3958 24.104 35.0198 23.984 35.5478 23.744C36.0758 23.504 36.4918 23.2 36.7958 22.832V21.032H33.5078C32.2438 21.032 31.6118 21.552 31.6118 22.592C31.6118 23.6 32.2998 24.104 33.6758 24.104ZM42.5008 26V14.624H45.5008L45.6448 15.8C46.1568 15.48 46.7888 15.192 47.5408 14.936C48.3088 14.664 49.0608 14.48 49.7968 14.384V16.832C49.3648 16.896 48.8928 16.992 48.3808 17.12C47.8688 17.248 47.3808 17.392 46.9168 17.552C46.4528 17.712 46.0608 17.88 45.7408 18.056V26H42.5008ZM54.3034 26.24C53.5834 26.24 52.9114 26.112 52.2874 25.856C51.6794 25.584 51.1834 25.192 50.7994 24.68C50.4314 24.152 50.2474 23.496 50.2474 22.712C50.2474 21.592 50.6394 20.696 51.4234 20.024C52.2234 19.352 53.3994 19.016 54.9514 19.016H58.3114V18.704C58.3114 18 58.1114 17.504 57.7114 17.216C57.3274 16.928 56.5434 16.784 55.3594 16.784C54.0634 16.784 52.8154 16.984 51.6154 17.384V15.104C52.1434 14.896 52.7834 14.728 53.5354 14.6C54.3034 14.456 55.1354 14.384 56.0314 14.384C57.7434 14.384 59.0634 14.736 59.9914 15.44C60.9354 16.128 61.4074 17.24 61.4074 18.776V26H58.5994L58.4314 24.968C57.9834 25.368 57.4314 25.68 56.7754 25.904C56.1194 26.128 55.2954 26.24 54.3034 26.24ZM55.1914 24.104C55.9114 24.104 56.5354 23.984 57.0634 23.744C57.5914 23.504 58.0074 23.2 58.3114 22.832V21.032H55.0234C53.7594 21.032 53.1274 21.552 53.1274 22.592C53.1274 23.6 53.8154 24.104 55.1914 24.104ZM64.0164 26V9.824H67.2564V18.728L71.5044 14.624H75.2004L70.6164 19.28L75.4644 26H72.0324L68.5764 20.984L67.2564 22.256V26H64.0164ZM81.1539 26.24C79.7939 26.24 78.7299 25.864 77.9619 25.112C77.2099 24.344 76.8339 23.224 76.8339 21.752V14.624H80.0739V21.68C80.0739 22.448 80.2579 23.008 80.6259 23.36C80.9939 23.696 81.5459 23.864 82.2819 23.864C82.8419 23.864 83.3539 23.752 83.8179 23.528C84.2979 23.304 84.7059 23.024 85.0419 22.688V14.624H88.2819V26H85.2819L85.1619 24.92C84.6819 25.304 84.1139 25.624 83.4579 25.88C82.8179 26.12 82.0499 26.24 81.1539 26.24ZM95.7919 26.24C94.7839 26.24 93.8799 26.064 93.0799 25.712C92.2959 25.344 91.6799 24.752 91.2319 23.936C90.7839 23.104 90.5599 22.008 90.5599 20.648C90.5599 19.288 90.8079 18.144 91.3039 17.216C91.7999 16.288 92.4639 15.584 93.2959 15.104C94.1279 14.624 95.0399 14.384 96.0319 14.384C97.2799 14.384 98.3439 14.672 99.2239 15.248V9.824H102.464V26H99.6799L99.4879 24.944C98.9919 25.376 98.4479 25.704 97.8559 25.928C97.2799 26.136 96.5919 26.24 95.7919 26.24ZM96.6799 23.864C97.6879 23.864 98.5359 23.52 99.2239 22.832V17.648C98.5519 17.056 97.7679 16.76 96.8719 16.76C94.8559 16.76 93.8479 18.056 93.8479 20.648C93.8479 21.864 94.0959 22.704 94.5919 23.168C95.0879 23.632 95.7839 23.864 96.6799 23.864ZM108.655 26.24C107.935 26.24 107.263 26.112 106.639 25.856C106.031 25.584 105.535 25.192 105.151 24.68C104.783 24.152 104.599 23.496 104.599 22.712C104.599 21.592 104.991 20.696 105.775 20.024C106.575 19.352 107.751 19.016 109.303 19.016H112.663V18.704C112.663 18 112.463 17.504 112.063 17.216C111.679 16.928 110.895 16.784 109.711 16.784C108.415 16.784 107.167 16.984 105.967 17.384V15.104C106.495 14.896 107.135 14.728 107.887 14.6C108.655 14.456 109.487 14.384 110.383 14.384C112.095 14.384 113.415 14.736 114.343 15.44C115.287 16.128 115.759 17.24 115.759 18.776V26H112.951L112.783 24.968C112.335 25.368 111.783 25.68 111.127 25.904C110.471 26.128 109.647 26.24 108.655 26.24ZM109.543 24.104C110.263 24.104 110.887 23.984 111.415 23.744C111.943 23.504 112.359 23.2 112.663 22.832V21.032H109.375C108.111 21.032 107.479 21.552 107.479 22.592C107.479 23.6 108.167 24.104 109.543 24.104Z"/>
</mask>
<path d="M21.7515 26.24C20.9515 26.24 20.2555 26.136 19.6635 25.928C19.0715 25.704 18.5275 25.376 18.0315 24.944L17.8635 26H15.0555V9.824H18.2955V15.248C18.7595 14.96 19.2795 14.744 19.8555 14.6C20.4315 14.456 21.0315 14.384 21.6555 14.384C23.2875 14.384 24.5755 14.848 25.5195 15.776C26.4795 16.688 26.9595 18.168 26.9595 20.216C26.9595 22.264 26.4875 23.784 25.5435 24.776C24.6155 25.752 23.3515 26.24 21.7515 26.24ZM20.8395 23.864C21.8795 23.864 22.6075 23.56 23.0235 22.952C23.4555 22.344 23.6715 21.432 23.6715 20.216C23.6715 18.952 23.4395 18.064 22.9755 17.552C22.5275 17.024 21.8075 16.76 20.8155 16.76C20.3195 16.76 19.8475 16.832 19.3995 16.976C18.9675 17.12 18.5995 17.328 18.2955 17.6V22.832C18.6155 23.168 18.9915 23.424 19.4235 23.6C19.8715 23.776 20.3435 23.864 20.8395 23.864ZM32.7878 26.24C32.0678 26.24 31.3958 26.112 30.7718 25.856C30.1638 25.584 29.6678 25.192 29.2838 24.68C28.9158 24.152 28.7318 23.496 28.7318 22.712C28.7318 21.592 29.1238 20.696 29.9078 20.024C30.7078 19.352 31.8838 19.016 33.4358 19.016H36.7958V18.704C36.7958 18 36.5958 17.504 36.1958 17.216C35.8118 16.928 35.0278 16.784 33.8438 16.784C32.5478 16.784 31.2998 16.984 30.0998 17.384V15.104C30.6278 14.896 31.2678 14.728 32.0198 14.6C32.7878 14.456 33.6198 14.384 34.5158 14.384C36.2278 14.384 37.5478 14.736 38.4758 15.44C39.4198 16.128 39.8918 17.24 39.8918 18.776V26H37.0838L36.9158 24.968C36.4678 25.368 35.9158 25.68 35.2598 25.904C34.6038 26.128 33.7798 26.24 32.7878 26.24ZM33.6758 24.104C34.3958 24.104 35.0198 23.984 35.5478 23.744C36.0758 23.504 36.4918 23.2 36.7958 22.832V21.032H33.5078C32.2438 21.032 31.6118 21.552 31.6118 22.592C31.6118 23.6 32.2998 24.104 33.6758 24.104ZM42.5008 26V14.624H45.5008L45.6448 15.8C46.1568 15.48 46.7888 15.192 47.5408 14.936C48.3088 14.664 49.0608 14.48 49.7968 14.384V16.832C49.3648 16.896 48.8928 16.992 48.3808 17.12C47.8688 17.248 47.3808 17.392 46.9168 17.552C46.4528 17.712 46.0608 17.88 45.7408 18.056V26H42.5008ZM54.3034 26.24C53.5834 26.24 52.9114 26.112 52.2874 25.856C51.6794 25.584 51.1834 25.192 50.7994 24.68C50.4314 24.152 50.2474 23.496 50.2474 22.712C50.2474 21.592 50.6394 20.696 51.4234 20.024C52.2234 19.352 53.3994 19.016 54.9514 19.016H58.3114V18.704C58.3114 18 58.1114 17.504 57.7114 17.216C57.3274 16.928 56.5434 16.784 55.3594 16.784C54.0634 16.784 52.8154 16.984 51.6154 17.384V15.104C52.1434 14.896 52.7834 14.728 53.5354 14.6C54.3034 14.456 55.1354 14.384 56.0314 14.384C57.7434 14.384 59.0634 14.736 59.9914 15.44C60.9354 16.128 61.4074 17.24 61.4074 18.776V26H58.5994L58.4314 24.968C57.9834 25.368 57.4314 25.68 56.7754 25.904C56.1194 26.128 55.2954 26.24 54.3034 26.24ZM55.1914 24.104C55.9114 24.104 56.5354 23.984 57.0634 23.744C57.5914 23.504 58.0074 23.2 58.3114 22.832V21.032H55.0234C53.7594 21.032 53.1274 21.552 53.1274 22.592C53.1274 23.6 53.8154 24.104 55.1914 24.104ZM64.0164 26V9.824H67.2564V18.728L71.5044 14.624H75.2004L70.6164 19.28L75.4644 26H72.0324L68.5764 20.984L67.2564 22.256V26H64.0164ZM81.1539 26.24C79.7939 26.24 78.7299 25.864 77.9619 25.112C77.2099 24.344 76.8339 23.224 76.8339 21.752V14.624H80.0739V21.68C80.0739 22.448 80.2579 23.008 80.6259 23.36C80.9939 23.696 81.5459 23.864 82.2819 23.864C82.8419 23.864 83.3539 23.752 83.8179 23.528C84.2979 23.304 84.7059 23.024 85.0419 22.688V14.624H88.2819V26H85.2819L85.1619 24.92C84.6819 25.304 84.1139 25.624 83.4579 25.88C82.8179 26.12 82.0499 26.24 81.1539 26.24ZM95.7919 26.24C94.7839 26.24 93.8799 26.064 93.0799 25.712C92.2959 25.344 91.6799 24.752 91.2319 23.936C90.7839 23.104 90.5599 22.008 90.5599 20.648C90.5599 19.288 90.8079 18.144 91.3039 17.216C91.7999 16.288 92.4639 15.584 93.2959 15.104C94.1279 14.624 95.0399 14.384 96.0319 14.384C97.2799 14.384 98.3439 14.672 99.2239 15.248V9.824H102.464V26H99.6799L99.4879 24.944C98.9919 25.376 98.4479 25.704 97.8559 25.928C97.2799 26.136 96.5919 26.24 95.7919 26.24ZM96.6799 23.864C97.6879 23.864 98.5359 23.52 99.2239 22.832V17.648C98.5519 17.056 97.7679 16.76 96.8719 16.76C94.8559 16.76 93.8479 18.056 93.8479 20.648C93.8479 21.864 94.0959 22.704 94.5919 23.168C95.0879 23.632 95.7839 23.864 96.6799 23.864ZM108.655 26.24C107.935 26.24 107.263 26.112 106.639 25.856C106.031 25.584 105.535 25.192 105.151 24.68C104.783 24.152 104.599 23.496 104.599 22.712C104.599 21.592 104.991 20.696 105.775 20.024C106.575 19.352 107.751 19.016 109.303 19.016H112.663V18.704C112.663 18 112.463 17.504 112.063 17.216C111.679 16.928 110.895 16.784 109.711 16.784C108.415 16.784 107.167 16.984 105.967 17.384V15.104C106.495 14.896 107.135 14.728 107.887 14.6C108.655 14.456 109.487 14.384 110.383 14.384C112.095 14.384 113.415 14.736 114.343 15.44C115.287 16.128 115.759 17.24 115.759 18.776V26H112.951L112.783 24.968C112.335 25.368 111.783 25.68 111.127 25.904C110.471 26.128 109.647 26.24 108.655 26.24ZM109.543 24.104C110.263 24.104 110.887 23.984 111.415 23.744C111.943 23.504 112.359 23.2 112.663 22.832V21.032H109.375C108.111 21.032 107.479 21.552 107.479 22.592C107.479 23.6 108.167 24.104 109.543 24.104Z" fill="#367BB3"/>
<path d="M19.6635 25.928L19.3096 26.8633L19.3208 26.8675L19.332 26.8715L19.6635 25.928ZM18.0315 24.944L18.6883 24.1899L17.3275 23.0047L17.0439 24.7869L18.0315 24.944ZM17.8635 26V27H18.717L18.8511 26.1571L17.8635 26ZM15.0555 26H14.0555V27H15.0555V26ZM15.0555 9.824V8.824H14.0555V9.824H15.0555ZM18.2955 9.824H19.2955V8.824H18.2955V9.824ZM18.2955 15.248H17.2955V17.0457L18.8229 16.0976L18.2955 15.248ZM19.8555 14.6L19.613 13.6299L19.613 13.6299L19.8555 14.6ZM25.5195 15.776L24.8185 16.4891L24.8246 16.4951L24.8308 16.501L25.5195 15.776ZM25.5435 24.776L24.8191 24.0866L24.8188 24.0869L25.5435 24.776ZM23.0235 22.952L22.2083 22.3728L22.2032 22.38L22.1982 22.3873L23.0235 22.952ZM22.9755 17.552L22.213 18.199L22.2236 18.2114L22.2345 18.2235L22.9755 17.552ZM19.3995 16.976L19.0935 16.0239L19.0833 16.0273L19.3995 16.976ZM18.2955 17.6L17.6287 16.8548L17.2955 17.1529V17.6H18.2955ZM18.2955 22.832H17.2955V23.232L17.5714 23.5217L18.2955 22.832ZM19.4235 23.6L19.0462 24.5262L19.0578 24.5308L19.4235 23.6ZM21.7515 25.24C21.0348 25.24 20.4558 25.1464 19.995 24.9845L19.332 26.8715C20.0552 27.1256 20.8682 27.24 21.7515 27.24V25.24ZM20.0174 24.9927C19.5406 24.8123 19.0984 24.5471 18.6883 24.1899L17.3747 25.6981C17.9566 26.2049 18.6024 26.5957 19.3096 26.8633L20.0174 24.9927ZM17.0439 24.7869L16.8759 25.8429L18.8511 26.1571L19.0191 25.1011L17.0439 24.7869ZM17.8635 25H15.0555V27H17.8635V25ZM16.0555 26V9.824H14.0555V26H16.0555ZM15.0555 10.824H18.2955V8.824H15.0555V10.824ZM17.2955 9.824V15.248H19.2955V9.824H17.2955ZM18.8229 16.0976C19.1914 15.8689 19.6139 15.6912 20.098 15.5701L19.613 13.6299C18.9451 13.7968 18.3276 14.0511 17.7681 14.3984L18.8229 16.0976ZM20.098 15.5701C20.5908 15.447 21.1091 15.384 21.6555 15.384V13.384C20.9539 13.384 20.2722 13.465 19.613 13.6299L20.098 15.5701ZM21.6555 15.384C23.0899 15.384 24.103 15.7858 24.8185 16.4891L26.2205 15.0629C25.048 13.9102 23.4851 13.384 21.6555 13.384V15.384ZM24.8308 16.501C25.5058 17.1423 25.9595 18.2947 25.9595 20.216H27.9595C27.9595 18.0413 27.4532 16.2337 26.2083 15.051L24.8308 16.501ZM25.9595 20.216C25.9595 22.1323 25.5156 23.3547 24.8191 24.0866L26.2679 25.4654C27.4594 24.2133 27.9595 22.3957 27.9595 20.216H25.9595ZM24.8188 24.0869C24.1148 24.8273 23.1333 25.24 21.7515 25.24V27.24C23.5697 27.24 25.1162 26.6767 26.2682 25.4651L24.8188 24.0869ZM20.8395 24.864C22.0629 24.864 23.1766 24.4992 23.8488 23.5167L22.1982 22.3873C22.0384 22.6208 21.6961 22.864 20.8395 22.864V24.864ZM23.8387 23.5312C24.4453 22.6774 24.6715 21.5201 24.6715 20.216H22.6715C22.6715 21.3439 22.4657 22.0106 22.2083 22.3728L23.8387 23.5312ZM24.6715 20.216C24.6715 18.8878 24.4392 17.678 23.7165 16.8805L22.2345 18.2235C22.4398 18.45 22.6715 19.0162 22.6715 20.216H24.6715ZM23.738 16.905C23.0289 16.0693 21.9699 15.76 20.8155 15.76V17.76C21.6451 17.76 22.0261 17.9787 22.213 18.199L23.738 16.905ZM20.8155 15.76C20.2213 15.76 19.6456 15.8465 19.0935 16.024L19.7055 17.928C20.0494 17.8175 20.4177 17.76 20.8155 17.76V15.76ZM19.0833 16.0273C18.5368 16.2095 18.0457 16.4817 17.6287 16.8548L18.9623 18.3452C19.1533 18.1743 19.3982 18.0305 19.7157 17.9247L19.0833 16.0273ZM17.2955 17.6V22.832H19.2955V17.6H17.2955ZM17.5714 23.5217C17.9895 23.9607 18.4839 24.297 19.0462 24.5261L19.8008 22.6739C19.4991 22.551 19.2415 22.3753 19.0196 22.1423L17.5714 23.5217ZM19.0578 24.5308C19.6259 24.7539 20.2222 24.864 20.8395 24.864V22.864C20.4648 22.864 20.1171 22.7981 19.7892 22.6692L19.0578 24.5308ZM30.7718 25.856L30.3634 26.7688L30.3777 26.7752L30.3922 26.7812L30.7718 25.856ZM29.2838 24.68L28.4634 25.2518L28.4733 25.2661L28.4838 25.28L29.2838 24.68ZM29.9078 20.024L29.2645 19.2583L29.257 19.2647L29.9078 20.024ZM36.7958 19.016V20.016H37.7958V19.016H36.7958ZM36.1958 17.216L35.5958 18.016L35.6035 18.0218L35.6114 18.0275L36.1958 17.216ZM30.0998 17.384H29.0998V18.7714L30.416 18.3327L30.0998 17.384ZM30.0998 15.104L29.7332 14.1736L29.0998 14.4231V15.104H30.0998ZM32.0198 14.6L32.1875 15.5858L32.1958 15.5844L32.204 15.5829L32.0198 14.6ZM38.4758 15.44L37.8714 16.2367L37.879 16.2425L37.8868 16.2481L38.4758 15.44ZM39.8918 26V27H40.8918V26H39.8918ZM37.0838 26L36.0967 26.1607L36.2334 27H37.0838V26ZM36.9158 24.968L37.9028 24.8073L37.6098 23.0077L36.2497 24.2221L36.9158 24.968ZM36.7958 22.832L37.5667 23.4689L37.7958 23.1916V22.832H36.7958ZM36.7958 21.032H37.7958V20.032H36.7958V21.032ZM32.7878 25.24C32.189 25.24 31.6469 25.1342 31.1513 24.9308L30.3922 26.7812C31.1446 27.0898 31.9465 27.24 32.7878 27.24V25.24ZM31.1801 24.9432C30.7205 24.7376 30.3617 24.4505 30.0838 24.08L28.4838 25.28C28.9738 25.9335 29.607 26.4304 30.3634 26.7688L31.1801 24.9432ZM30.1041 24.1082C29.8765 23.7816 29.7318 23.3368 29.7318 22.712H27.7318C27.7318 23.6552 27.955 24.5224 28.4634 25.2518L30.1041 24.1082ZM29.7318 22.712C29.7318 21.856 30.0166 21.2478 30.5585 20.7833L29.257 19.2647C28.2309 20.1442 27.7318 21.328 27.7318 22.712H29.7318ZM30.5509 20.7897C31.1012 20.3275 32.0085 20.016 33.4358 20.016V18.016C31.759 18.016 30.3143 18.3765 29.2646 19.2583L30.5509 20.7897ZM33.4358 20.016H36.7958V18.016H33.4358V20.016ZM37.7958 19.016V18.704H35.7958V19.016H37.7958ZM37.7958 18.704C37.7958 17.825 37.5408 16.9522 36.7801 16.4045L35.6114 18.0275C35.6507 18.0558 35.7958 18.175 35.7958 18.704H37.7958ZM36.7957 16.416C36.4241 16.1373 35.9562 15.9922 35.5004 15.9085C35.0277 15.8216 34.4702 15.784 33.8438 15.784V17.784C34.4013 17.784 34.8278 17.8184 35.1391 17.8755C35.2933 17.9039 35.4064 17.9355 35.4859 17.9649C35.5666 17.9948 35.596 18.0162 35.5958 18.016L36.7957 16.416ZM33.8438 15.784C32.4429 15.784 31.088 16.0005 29.7835 16.4353L30.416 18.3327C31.5115 17.9675 32.6526 17.784 33.8438 17.784V15.784ZM31.0998 17.384V15.104H29.0998V17.384H31.0998ZM30.4663 16.0344C30.9125 15.8586 31.4819 15.7059 32.1875 15.5858L31.852 13.6142C31.0536 13.7501 30.343 13.9334 29.7332 14.1736L30.4663 16.0344ZM32.204 15.5829C32.9032 15.4518 33.6728 15.384 34.5158 15.384V13.384C33.5667 13.384 32.6723 13.4602 31.8355 13.6171L32.204 15.5829ZM34.5158 15.384C36.1079 15.384 37.182 15.7137 37.8714 16.2367L39.0801 14.6433C37.9135 13.7583 36.3476 13.384 34.5158 13.384V15.384ZM37.8868 16.2481C38.4947 16.6912 38.8918 17.4493 38.8918 18.776H40.8918C40.8918 17.0307 40.3448 15.5648 39.0647 14.6319L37.8868 16.2481ZM38.8918 18.776V26H40.8918V18.776H38.8918ZM39.8918 25H37.0838V27H39.8918V25ZM38.0708 25.8393L37.9028 24.8073L35.9287 25.1287L36.0967 26.1607L38.0708 25.8393ZM36.2497 24.2221C35.9157 24.5203 35.4854 24.7703 34.9366 24.9577L35.5829 26.8503C36.3461 26.5897 37.0198 26.2157 37.5818 25.7139L36.2497 24.2221ZM34.9366 24.9577C34.4189 25.1344 33.7131 25.24 32.7878 25.24V27.24C33.8464 27.24 34.7886 27.1216 35.5829 26.8503L34.9366 24.9577ZM33.6758 25.104C34.505 25.104 35.2762 24.9659 35.9616 24.6544L35.1339 22.8336C34.7633 23.0021 34.2865 23.104 33.6758 23.104V25.104ZM35.9616 24.6544C36.5986 24.3648 37.1474 23.9765 37.5667 23.4689L36.0248 22.1951C35.8361 22.4235 35.5529 22.6432 35.1339 22.8336L35.9616 24.6544ZM37.7958 22.832V21.032H35.7958V22.832H37.7958ZM36.7958 20.032H33.5078V22.032H36.7958V20.032ZM33.5078 20.032C32.7639 20.032 32.0201 20.181 31.4504 20.6498C30.8433 21.1493 30.6118 21.8608 30.6118 22.592H32.6118C32.6118 22.2832 32.6962 22.2147 32.7211 22.1942C32.7834 22.143 32.9876 22.032 33.5078 22.032V20.032ZM30.6118 22.592C30.6118 23.3489 30.8869 24.0566 31.5368 24.5327C32.1287 24.9663 32.8952 25.104 33.6758 25.104V23.104C33.0803 23.104 32.8148 22.9897 32.7187 22.9193C32.6811 22.8918 32.664 22.868 32.651 22.8393C32.6354 22.8051 32.6118 22.731 32.6118 22.592H30.6118ZM42.5008 26H41.5008V27H42.5008V26ZM42.5008 14.624V13.624H41.5008V14.624H42.5008ZM45.5008 14.624L46.4934 14.5025L46.3858 13.624H45.5008V14.624ZM45.6448 15.8L44.6522 15.9215L44.8431 17.4803L46.1748 16.648L45.6448 15.8ZM47.5408 14.936L47.8631 15.8827L47.8747 15.8786L47.5408 14.936ZM49.7968 14.384H50.7968V13.2451L49.6675 13.3924L49.7968 14.384ZM49.7968 16.832L49.9434 17.8212L50.7968 17.6948V16.832H49.7968ZM48.3808 17.12L48.6233 18.0901L48.6233 18.0901L48.3808 17.12ZM46.9168 17.552L46.5908 16.6066L46.5908 16.6066L46.9168 17.552ZM45.7408 18.056L45.2589 17.1798L44.7408 17.4647V18.056H45.7408ZM45.7408 26V27H46.7408V26H45.7408ZM43.5008 26V14.624H41.5008V26H43.5008ZM42.5008 15.624H45.5008V13.624H42.5008V15.624ZM44.5082 14.7455L44.6522 15.9215L46.6374 15.6785L46.4934 14.5025L44.5082 14.7455ZM46.1748 16.648C46.6049 16.3792 47.1625 16.1212 47.8631 15.8826L47.2185 13.9893C46.4152 14.2628 45.7088 14.5808 45.1148 14.952L46.1748 16.648ZM47.8747 15.8786C48.5828 15.6278 49.2662 15.4617 49.9262 15.3756L49.6675 13.3924C48.8554 13.4983 48.0349 13.7002 47.207 13.9934L47.8747 15.8786ZM48.7968 14.384V16.832H50.7968V14.384H48.7968ZM49.6503 15.8428C49.1802 15.9124 48.6757 16.0155 48.1383 16.1499L48.6233 18.0901C49.11 17.9685 49.5495 17.8796 49.9434 17.8212L49.6503 15.8428ZM48.1383 16.1499C47.6002 16.2844 47.0842 16.4365 46.5908 16.6066L47.2428 18.4974C47.6774 18.3475 48.1374 18.2116 48.6233 18.0901L48.1383 16.1499ZM46.5908 16.6066C46.09 16.7793 45.6425 16.9688 45.2589 17.1798L46.2227 18.9322C46.4792 18.7912 46.8156 18.6447 47.2428 18.4974L46.5908 16.6066ZM44.7408 18.056V26H46.7408V18.056H44.7408ZM45.7408 25H42.5008V27H45.7408V25ZM52.2874 25.856L51.879 26.7688L51.8933 26.7752L51.9078 26.7812L52.2874 25.856ZM50.7994 24.68L49.979 25.2518L49.9889 25.2661L49.9994 25.28L50.7994 24.68ZM51.4234 20.024L50.7802 19.2583L50.7726 19.2647L51.4234 20.024ZM58.3114 19.016V20.016H59.3114V19.016H58.3114ZM57.7114 17.216L57.1114 18.016L57.1192 18.0218L57.1271 18.0275L57.7114 17.216ZM51.6154 17.384H50.6154V18.7714L51.9316 18.3327L51.6154 17.384ZM51.6154 15.104L51.2489 14.1736L50.6154 14.4231V15.104H51.6154ZM53.5354 14.6L53.7032 15.5858L53.7114 15.5844L53.7197 15.5829L53.5354 14.6ZM59.9914 15.44L59.387 16.2367L59.3946 16.2425L59.4024 16.2481L59.9914 15.44ZM61.4074 26V27H62.4074V26H61.4074ZM58.5994 26L57.6124 26.1607L57.749 27H58.5994V26ZM58.4314 24.968L59.4184 24.8073L59.1254 23.0077L57.7654 24.2221L58.4314 24.968ZM58.3114 22.832L59.0823 23.4689L59.3114 23.1916V22.832H58.3114ZM58.3114 21.032H59.3114V20.032H58.3114V21.032ZM54.3034 25.24C53.7047 25.24 53.1625 25.1342 52.6669 24.9308L51.9078 26.7812C52.6602 27.0898 53.4621 27.24 54.3034 27.24V25.24ZM52.6957 24.9432C52.2362 24.7376 51.8773 24.4505 51.5994 24.08L49.9994 25.28C50.4895 25.9335 51.1226 26.4304 51.879 26.7688L52.6957 24.9432ZM51.6198 24.1082C51.3922 23.7816 51.2474 23.3368 51.2474 22.712H49.2474C49.2474 23.6552 49.4706 24.5224 49.979 25.2518L51.6198 24.1082ZM51.2474 22.712C51.2474 21.856 51.5322 21.2478 52.0742 20.7833L50.7726 19.2647C49.7466 20.1442 49.2474 21.328 49.2474 22.712H51.2474ZM52.0666 20.7897C52.6168 20.3275 53.5241 20.016 54.9514 20.016V18.016C53.2746 18.016 51.8299 18.3765 50.7802 19.2583L52.0666 20.7897ZM54.9514 20.016H58.3114V18.016H54.9514V20.016ZM59.3114 19.016V18.704H57.3114V19.016H59.3114ZM59.3114 18.704C59.3114 17.825 59.0565 16.9522 58.2957 16.4045L57.1271 18.0275C57.1663 18.0558 57.3114 18.175 57.3114 18.704H59.3114ZM58.3114 16.416C57.9397 16.1373 57.4719 15.9922 57.016 15.9085C56.5433 15.8216 55.9858 15.784 55.3594 15.784V17.784C55.9169 17.784 56.3434 17.8184 56.6547 17.8755C56.809 17.9039 56.922 17.9355 57.0015 17.9649C57.0822 17.9948 57.1116 18.0162 57.1114 18.016L58.3114 16.416ZM55.3594 15.784C53.9586 15.784 52.6036 16.0005 51.2991 16.4353L51.9316 18.3327C53.0271 17.9675 54.1682 17.784 55.3594 17.784V15.784ZM52.6154 17.384V15.104H50.6154V17.384H52.6154ZM51.9819 16.0344C52.4282 15.8586 52.9976 15.7059 53.7032 15.5858L53.3676 13.6142C52.5692 13.7501 51.8586 13.9334 51.2489 14.1736L51.9819 16.0344ZM53.7197 15.5829C54.4188 15.4518 55.1884 15.384 56.0314 15.384V13.384C55.0823 13.384 54.1879 13.4602 53.3511 13.6171L53.7197 15.5829ZM56.0314 15.384C57.6235 15.384 58.6976 15.7137 59.387 16.2367L60.5958 14.6433C59.4291 13.7583 57.8633 13.384 56.0314 13.384V15.384ZM59.4024 16.2481C60.0103 16.6912 60.4074 17.4493 60.4074 18.776H62.4074C62.4074 17.0307 61.8604 15.5648 60.5804 14.6319L59.4024 16.2481ZM60.4074 18.776V26H62.4074V18.776H60.4074ZM61.4074 25H58.5994V27H61.4074V25ZM59.5864 25.8393L59.4184 24.8073L57.4444 25.1287L57.6124 26.1607L59.5864 25.8393ZM57.7654 24.2221C57.4313 24.5203 57.001 24.7703 56.4522 24.9577L57.0985 26.8503C57.8617 26.5897 58.5355 26.2157 59.0974 25.7139L57.7654 24.2221ZM56.4522 24.9577C55.9346 25.1344 55.2287 25.24 54.3034 25.24V27.24C55.362 27.24 56.3042 27.1216 57.0985 26.8503L56.4522 24.9577ZM55.1914 25.104C56.0206 25.104 56.7918 24.9659 57.4772 24.6544L56.6496 22.8336C56.2789 23.0021 55.8022 23.104 55.1914 23.104V25.104ZM57.4772 24.6544C58.1142 24.3648 58.663 23.9765 59.0823 23.4689L57.5404 22.1951C57.3517 22.4235 57.0686 22.6432 56.6496 22.8336L57.4772 24.6544ZM59.3114 22.832V21.032H57.3114V22.832H59.3114ZM58.3114 20.032H55.0234V22.032H58.3114V20.032ZM55.0234 20.032C54.2795 20.032 53.5357 20.181 52.966 20.6498C52.359 21.1493 52.1274 21.8608 52.1274 22.592H54.1274C54.1274 22.2832 54.2118 22.2147 54.2367 22.1942C54.299 22.143 54.5033 22.032 55.0234 22.032V20.032ZM52.1274 22.592C52.1274 23.3489 52.4025 24.0566 53.0524 24.5327C53.6443 24.9663 54.4108 25.104 55.1914 25.104V23.104C54.5959 23.104 54.3304 22.9897 54.2343 22.9193C54.1968 22.8918 54.1796 22.868 54.1666 22.8393C54.151 22.8051 54.1274 22.731 54.1274 22.592H52.1274ZM64.0164 26H63.0164V27H64.0164V26ZM64.0164 9.824V8.824H63.0164V9.824H64.0164ZM67.2564 9.824H68.2564V8.824H67.2564V9.824ZM67.2564 18.728H66.2564V21.0846L67.9512 19.4472L67.2564 18.728ZM71.5044 14.624V13.624H71.1003L70.8096 13.9048L71.5044 14.624ZM75.2004 14.624L75.913 15.3256L77.5883 13.624H75.2004V14.624ZM70.6164 19.28L69.9038 18.5784L69.3114 19.1802L69.8055 19.8651L70.6164 19.28ZM75.4644 26V27H77.4189L76.2754 25.4149L75.4644 26ZM72.0324 26L71.209 26.5674L71.5071 27H72.0324V26ZM68.5764 20.984L69.3999 20.4166L68.7312 19.4461L67.8825 20.2639L68.5764 20.984ZM67.2564 22.256L66.5625 21.5359L66.2564 21.8309V22.256H67.2564ZM67.2564 26V27H68.2564V26H67.2564ZM65.0164 26V9.824H63.0164V26H65.0164ZM64.0164 10.824H67.2564V8.824H64.0164V10.824ZM66.2564 9.824V18.728H68.2564V9.824H66.2564ZM67.9512 19.4472L72.1992 15.3432L70.8096 13.9048L66.5616 18.0088L67.9512 19.4472ZM71.5044 15.624H75.2004V13.624H71.5044V15.624ZM74.4878 13.9224L69.9038 18.5784L71.329 19.9816L75.913 15.3256L74.4878 13.9224ZM69.8055 19.8651L74.6535 26.5851L76.2754 25.4149L71.4274 18.6949L69.8055 19.8651ZM75.4644 25H72.0324V27H75.4644V25ZM72.8559 25.4326L69.3999 20.4166L67.753 21.5514L71.209 26.5674L72.8559 25.4326ZM67.8825 20.2639L66.5625 21.5359L67.9503 22.9761L69.2703 21.7041L67.8825 20.2639ZM66.2564 22.256V26H68.2564V22.256H66.2564ZM67.2564 25H64.0164V27H67.2564V25ZM77.9619 25.112L77.2474 25.8116L77.2548 25.8191L77.2623 25.8265L77.9619 25.112ZM76.8339 14.624V13.624H75.8339V14.624H76.8339ZM80.0739 14.624H81.0739V13.624H80.0739V14.624ZM80.6259 23.36L79.9347 24.0826L79.9431 24.0907L79.9517 24.0985L80.6259 23.36ZM83.8179 23.528L83.395 22.6217L83.3832 22.6274L83.8179 23.528ZM85.0419 22.688L85.749 23.3951L86.0419 23.1022V22.688H85.0419ZM85.0419 14.624V13.624H84.0419V14.624H85.0419ZM88.2819 14.624H89.2819V13.624H88.2819V14.624ZM88.2819 26V27H89.2819V26H88.2819ZM85.2819 26L84.2881 26.1104L84.3869 27H85.2819V26ZM85.1619 24.92L86.1558 24.8096L85.9553 23.0047L84.5372 24.1391L85.1619 24.92ZM83.4579 25.88L83.8091 26.8164L83.8215 26.8116L83.4579 25.88ZM81.1539 25.24C79.9827 25.24 79.1964 24.9212 78.6616 24.3975L77.2623 25.8265C78.2634 26.8068 79.6051 27.24 81.1539 27.24V25.24ZM78.6764 24.4124C78.1664 23.8915 77.8339 23.061 77.8339 21.752H75.8339C75.8339 23.387 76.2534 24.7965 77.2474 25.8116L78.6764 24.4124ZM77.8339 21.752V14.624H75.8339V21.752H77.8339ZM76.8339 15.624H80.0739V13.624H76.8339V15.624ZM79.0739 14.624V21.68H81.0739V14.624H79.0739ZM79.0739 21.68C79.0739 22.5832 79.2883 23.4643 79.9347 24.0826L81.3172 22.6374C81.2276 22.5517 81.0739 22.3128 81.0739 21.68H79.0739ZM79.9517 24.0985C80.575 24.6676 81.4132 24.864 82.2819 24.864V22.864C81.6787 22.864 81.4129 22.7244 81.3002 22.6215L79.9517 24.0985ZM82.2819 24.864C82.9792 24.864 83.6416 24.7235 84.2527 24.4286L83.3832 22.6274C83.0663 22.7805 82.7047 22.864 82.2819 22.864V24.864ZM84.2408 24.4342C84.8144 24.1665 85.3217 23.8224 85.749 23.3951L84.3348 21.9809C84.0901 22.2256 83.7815 22.4415 83.3951 22.6218L84.2408 24.4342ZM86.0419 22.688V14.624H84.0419V22.688H86.0419ZM85.0419 15.624H88.2819V13.624H85.0419V15.624ZM87.2819 14.624V26H89.2819V14.624H87.2819ZM88.2819 25H85.2819V27H88.2819V25ZM86.2758 25.8896L86.1558 24.8096L84.1681 25.0304L84.2881 26.1104L86.2758 25.8896ZM84.5372 24.1391C84.1467 24.4516 83.6697 24.7239 83.0944 24.9484L83.8215 26.8116C84.5582 26.5241 85.2172 26.1564 85.7866 25.7009L84.5372 24.1391ZM83.1068 24.9437C82.608 25.1307 81.9653 25.24 81.1539 25.24V27.24C82.1346 27.24 83.0279 27.1093 83.8091 26.8163L83.1068 24.9437ZM93.0799 25.712L92.655 26.6172L92.666 26.6224L92.6771 26.6273L93.0799 25.712ZM91.2319 23.936L90.3514 24.4101L90.3553 24.4173L91.2319 23.936ZM99.2239 15.248L98.6762 16.0847L100.224 17.0977V15.248H99.2239ZM99.2239 9.824V8.824H98.2239V9.824H99.2239ZM102.464 9.824H103.464V8.824H102.464V9.824ZM102.464 26V27H103.464V26H102.464ZM99.6799 26L98.696 26.1789L98.8453 27H99.6799V26ZM99.4879 24.944L100.472 24.7651L100.157 23.0349L98.8311 24.1899L99.4879 24.944ZM97.8559 25.928L98.1955 26.8686L98.2027 26.866L98.2098 26.8633L97.8559 25.928ZM99.2239 22.832L99.931 23.5391L100.224 23.2462V22.832H99.2239ZM99.2239 17.648H100.224V17.1963L99.8849 16.8976L99.2239 17.648ZM94.5919 23.168L95.275 22.4377L95.275 22.4377L94.5919 23.168ZM95.7919 25.24C94.9014 25.24 94.1377 25.0849 93.4826 24.7967L92.6771 26.6273C93.6221 27.0431 94.6663 27.24 95.7919 27.24V25.24ZM93.5048 24.8068C92.9271 24.5356 92.4626 24.0999 92.1085 23.4547L90.3553 24.4173C90.8971 25.4041 91.6647 26.1524 92.655 26.6172L93.5048 24.8068ZM92.1123 23.4619C91.7697 22.8256 91.5599 21.9105 91.5599 20.648H89.5599C89.5599 22.1055 89.798 23.3824 90.3514 24.4101L92.1123 23.4619ZM91.5599 20.648C91.5599 19.4057 91.7867 18.4341 92.1858 17.6874L90.4219 16.7446C89.8291 17.8539 89.5599 19.1703 89.5599 20.648H91.5599ZM92.1858 17.6874C92.6025 16.9078 93.1406 16.348 93.7956 15.9702L92.7962 14.2378C91.7871 14.82 90.9973 15.6682 90.4219 16.7446L92.1858 17.6874ZM93.7956 15.9702C94.4705 15.5808 95.2093 15.384 96.0319 15.384V13.384C94.8705 13.384 93.7852 13.6672 92.7962 14.2378L93.7956 15.9702ZM96.0319 15.384C97.1222 15.384 97.9873 15.6338 98.6762 16.0847L99.7715 14.4113C98.7004 13.7102 97.4375 13.384 96.0319 13.384V15.384ZM100.224 15.248V9.824H98.2239V15.248H100.224ZM99.2239 10.824H102.464V8.824H99.2239V10.824ZM101.464 9.824V26H103.464V9.824H101.464ZM102.464 25H99.6799V27H102.464V25ZM100.664 25.8211L100.472 24.7651L98.504 25.1229L98.696 26.1789L100.664 25.8211ZM98.8311 24.1899C98.421 24.5471 97.9788 24.8123 97.502 24.9927L98.2098 26.8633C98.917 26.5957 99.5628 26.2049 100.145 25.6981L98.8311 24.1899ZM97.5162 24.9874C97.0768 25.1461 96.5096 25.24 95.7919 25.24V27.24C96.6741 27.24 97.483 27.1259 98.1955 26.8686L97.5162 24.9874ZM96.6799 24.864C97.9424 24.864 99.048 24.422 99.931 23.5391L98.5168 22.1249C98.0237 22.618 97.4333 22.864 96.6799 22.864V24.864ZM100.224 22.832V17.648H98.2239V22.832H100.224ZM99.8849 16.8976C99.0302 16.1447 98.0111 15.76 96.8719 15.76V17.76C97.5246 17.76 98.0736 17.9673 98.5628 18.3984L99.8849 16.8976ZM96.8719 15.76C95.6332 15.76 94.5512 16.1709 93.8145 17.1181C93.115 18.0174 92.8479 19.25 92.8479 20.648H94.8479C94.8479 19.454 95.0847 18.7426 95.3932 18.3459C95.6646 17.9971 96.0945 17.76 96.8719 17.76V15.76ZM92.8479 20.648C92.8479 21.9385 93.0994 23.1412 93.9087 23.8983L95.275 22.4377C95.0924 22.2668 94.8479 21.7895 94.8479 20.648H92.8479ZM93.9087 23.8983C94.6429 24.5851 95.6133 24.864 96.6799 24.864V22.864C95.9544 22.864 95.5329 22.6789 95.275 22.4377L93.9087 23.8983ZM106.639 25.856L106.231 26.7688L106.245 26.7752L106.259 26.7812L106.639 25.856ZM105.151 24.68L104.331 25.2518L104.34 25.2661L104.351 25.28L105.151 24.68ZM105.775 20.024L105.132 19.2583L105.124 19.2647L105.775 20.024ZM112.663 19.016V20.016H113.663V19.016H112.663ZM112.063 17.216L111.463 18.016L111.471 18.0218L111.479 18.0275L112.063 17.216ZM105.967 17.384H104.967V18.7714L106.283 18.3327L105.967 17.384ZM105.967 15.104L105.6 14.1736L104.967 14.4231V15.104H105.967ZM107.887 14.6L108.055 15.5858L108.063 15.5844L108.071 15.5829L107.887 14.6ZM114.343 15.44L113.739 16.2367L113.746 16.2425L113.754 16.2481L114.343 15.44ZM115.759 26V27H116.759V26H115.759ZM112.951 26L111.964 26.1607L112.101 27H112.951V26ZM112.783 24.968L113.77 24.8073L113.477 23.0077L112.117 24.2221L112.783 24.968ZM112.663 22.832L113.434 23.4689L113.663 23.1916V22.832H112.663ZM112.663 21.032H113.663V20.032H112.663V21.032ZM108.655 25.24C108.056 25.24 107.514 25.1342 107.018 24.9308L106.259 26.7812C107.012 27.0898 107.814 27.24 108.655 27.24V25.24ZM107.047 24.9432C106.588 24.7376 106.229 24.4505 105.951 24.08L104.351 25.28C104.841 25.9335 105.474 26.4304 106.231 26.7688L107.047 24.9432ZM105.971 24.1082C105.744 23.7816 105.599 23.3368 105.599 22.712H103.599C103.599 23.6552 103.822 24.5224 104.331 25.2518L105.971 24.1082ZM105.599 22.712C105.599 21.856 105.884 21.2478 106.426 20.7833L105.124 19.2647C104.098 20.1442 103.599 21.328 103.599 22.712H105.599ZM106.418 20.7897C106.968 20.3275 107.876 20.016 109.303 20.016V18.016C107.626 18.016 106.181 18.3765 105.132 19.2583L106.418 20.7897ZM109.303 20.016H112.663V18.016H109.303V20.016ZM113.663 19.016V18.704H111.663V19.016H113.663ZM113.663 18.704C113.663 17.825 113.408 16.9522 112.647 16.4045L111.479 18.0275C111.518 18.0558 111.663 18.175 111.663 18.704H113.663ZM112.663 16.416C112.291 16.1373 111.823 15.9922 111.368 15.9085C110.895 15.8216 110.337 15.784 109.711 15.784V17.784C110.268 17.784 110.695 17.8184 111.006 17.8755C111.161 17.9039 111.274 17.9355 111.353 17.9649C111.434 17.9948 111.463 18.0162 111.463 18.016L112.663 16.416ZM109.711 15.784C108.31 15.784 106.955 16.0005 105.651 16.4353L106.283 18.3327C107.379 17.9675 108.52 17.784 109.711 17.784V15.784ZM106.967 17.384V15.104H104.967V17.384H106.967ZM106.333 16.0344C106.78 15.8586 107.349 15.7059 108.055 15.5858L107.719 13.6142C106.921 13.7501 106.21 13.9334 105.6 14.1736L106.333 16.0344ZM108.071 15.5829C108.77 15.4518 109.54 15.384 110.383 15.384V13.384C109.434 13.384 108.539 13.4602 107.703 13.6171L108.071 15.5829ZM110.383 15.384C111.975 15.384 113.049 15.7137 113.739 16.2367L114.947 14.6433C113.781 13.7583 112.215 13.384 110.383 13.384V15.384ZM113.754 16.2481C114.362 16.6912 114.759 17.4493 114.759 18.776H116.759C116.759 17.0307 116.212 15.5648 114.932 14.6319L113.754 16.2481ZM114.759 18.776V26H116.759V18.776H114.759ZM115.759 25H112.951V27H115.759V25ZM113.938 25.8393L113.77 24.8073L111.796 25.1287L111.964 26.1607L113.938 25.8393ZM112.117 24.2221C111.783 24.5203 111.353 24.7703 110.804 24.9577L111.45 26.8503C112.213 26.5897 112.887 26.2157 113.449 25.7139L112.117 24.2221ZM110.804 24.9577C110.286 25.1344 109.58 25.24 108.655 25.24V27.24C109.714 27.24 110.656 27.1216 111.45 26.8503L110.804 24.9577ZM109.543 25.104C110.372 25.104 111.143 24.9659 111.829 24.6544L111.001 22.8336C110.63 23.0021 110.154 23.104 109.543 23.104V25.104ZM111.829 24.6544C112.466 24.3648 113.015 23.9765 113.434 23.4689L111.892 22.1951C111.703 22.4235 111.42 22.6432 111.001 22.8336L111.829 24.6544ZM113.663 22.832V21.032H111.663V22.832H113.663ZM112.663 20.032H109.375V22.032H112.663V20.032ZM109.375 20.032C108.631 20.032 107.887 20.181 107.318 20.6498C106.711 21.1493 106.479 21.8608 106.479 22.592H108.479C108.479 22.2832 108.563 22.2147 108.588 22.1942C108.651 22.143 108.855 22.032 109.375 22.032V20.032ZM106.479 22.592C106.479 23.3489 106.754 24.0566 107.404 24.5327C107.996 24.9663 108.762 25.104 109.543 25.104V23.104C108.947 23.104 108.682 22.9897 108.586 22.9193C108.548 22.8918 108.531 22.868 108.518 22.8393C108.503 22.8051 108.479 22.731 108.479 22.592H106.479Z" fill="#367BB3" mask="url(#path-1-inside-1_5_315)"/>
<path d="M121.695 12.11C121.094 12.11 120.646 11.9523 120.353 11.637C120.067 11.3217 119.924 10.8927 119.924 10.35V7.93H119.187V6.786H119.924V5.664L121.409 5.224V6.786H122.729L122.641 7.93H121.409V10.251C121.409 10.537 121.475 10.735 121.607 10.845C121.739 10.9477 121.944 10.999 122.223 10.999C122.428 10.999 122.641 10.9623 122.861 10.889V11.912C122.7 11.978 122.524 12.0257 122.333 12.055C122.142 12.0917 121.93 12.11 121.695 12.11ZM123.623 12V6.786H124.998L125.064 7.325C125.299 7.17833 125.588 7.04633 125.933 6.929C126.285 6.80433 126.63 6.72 126.967 6.676V7.798C126.769 7.82733 126.553 7.87133 126.318 7.93C126.083 7.98867 125.86 8.05467 125.647 8.128C125.434 8.20133 125.255 8.27833 125.108 8.359V12H123.623ZM129.033 12.11C128.703 12.11 128.395 12.0513 128.109 11.934C127.83 11.8093 127.603 11.6297 127.427 11.395C127.258 11.153 127.174 10.8523 127.174 10.493C127.174 9.97967 127.353 9.569 127.713 9.261C128.079 8.953 128.618 8.799 129.33 8.799H130.87V8.656C130.87 8.33333 130.778 8.106 130.595 7.974C130.419 7.842 130.059 7.776 129.517 7.776C128.923 7.776 128.351 7.86767 127.801 8.051V7.006C128.043 6.91067 128.336 6.83367 128.681 6.775C129.033 6.709 129.414 6.676 129.825 6.676C130.609 6.676 131.214 6.83733 131.64 7.16C132.072 7.47533 132.289 7.985 132.289 8.689V12H131.002L130.925 11.527C130.719 11.7103 130.466 11.8533 130.166 11.956C129.865 12.0587 129.487 12.11 129.033 12.11ZM129.44 11.131C129.77 11.131 130.056 11.076 130.298 10.966C130.54 10.856 130.73 10.7167 130.87 10.548V9.723H129.363C128.783 9.723 128.494 9.96133 128.494 10.438C128.494 10.9 128.809 11.131 129.44 11.131ZM135.662 12.11C135.2 12.11 134.786 12.0293 134.419 11.868C134.06 11.6993 133.778 11.428 133.572 11.054C133.367 10.6727 133.264 10.1703 133.264 9.547C133.264 8.92367 133.378 8.39933 133.605 7.974C133.833 7.54867 134.137 7.226 134.518 7.006C134.9 6.786 135.318 6.676 135.772 6.676C136.344 6.676 136.832 6.808 137.235 7.072V4.586H138.72V12H137.444L137.356 11.516C137.129 11.714 136.88 11.8643 136.608 11.967C136.344 12.0623 136.029 12.11 135.662 12.11ZM136.069 11.021C136.531 11.021 136.92 10.8633 137.235 10.548V8.172C136.927 7.90067 136.568 7.765 136.157 7.765C135.233 7.765 134.771 8.359 134.771 9.547C134.771 10.1043 134.885 10.4893 135.112 10.702C135.34 10.9147 135.659 11.021 136.069 11.021ZM142.582 12.11C141.68 12.11 140.965 11.8863 140.437 11.439C139.909 10.9843 139.645 10.2987 139.645 9.382C139.645 8.55333 139.865 7.897 140.305 7.413C140.753 6.92167 141.416 6.676 142.296 6.676C143.103 6.676 143.719 6.88867 144.144 7.314C144.577 7.732 144.793 8.282 144.793 8.964V9.91H141.02C141.101 10.328 141.292 10.614 141.592 10.768C141.9 10.922 142.333 10.999 142.89 10.999C143.169 10.999 143.451 10.9733 143.737 10.922C144.031 10.8707 144.28 10.8047 144.485 10.724V11.78C144.243 11.89 143.961 11.9707 143.638 12.022C143.316 12.0807 142.964 12.11 142.582 12.11ZM141.02 8.997H143.495V8.711C143.495 8.41033 143.407 8.17567 143.231 8.007C143.055 7.831 142.758 7.743 142.34 7.743C141.849 7.743 141.504 7.842 141.306 8.04C141.116 8.238 141.02 8.557 141.02 8.997Z" fill="#78B6E9"/>
</g>
<defs>
<filter id="filter0_d_5_315" x="-4" y="0" width="189" height="46" filterUnits="userSpaceOnUse" color-interpolation-filters="sRGB">
<feFlood flood-opacity="0" result="BackgroundImageFix"/>
<feColorMatrix in="SourceAlpha" type="matrix" values="0 0 0 0 0 0 0 0 0 0 0 0 0 0 0 0 0 0 127 0" result="hardAlpha"/>
<feOffset dy="4"/>
<feGaussianBlur stdDeviation="2"/>
<feComposite in2="hardAlpha" operator="out"/>
<feColorMatrix type="matrix" values="0 0 0 0 0 0 0 0 0 0 0 0 0 0 0 0 0 0 0.25 0"/>
<feBlend mode="normal" in2="BackgroundImageFix" result="effect1_dropShadow_5_315"/>
<feBlend mode="normal" in="SourceGraphic" in2="effect1_dropShadow_5_315" result="shape"/>
</filter>
</defs>
</svg>
